<svg width="234" height="24" viewBox="0 0 234 24" fill="none" xmlns="http://www.w3.org/2000/svg">
<g clip-path="url(#clip0_129_441)">
<path d="M219.002 7.10352H232.922V10.1755L224.698 19.7435H233.306V23.5515H218.618V20.4795L226.842 10.9115H219.002V7.10352Z" fill="#1D272D"/>
<path d="M202.908 7.10352H216.828V10.1755L208.604 19.7435H217.212V23.5515H202.524V20.4795L210.748 10.9115H202.908V7.10352Z" fill="#1D272D"/>
<path d="M199.86 0.991859C200.34 1.47186 200.596 2.07986 200.596 2.78386C200.596 3.51986 200.34 4.12786 199.86 4.60786C199.348 5.11986 198.74 5.34386 198.004 5.34386C197.236 5.34386 196.628 5.11986 196.116 4.60786C195.604 4.12786 195.38 3.51986 195.38 2.78386C195.38 2.07986 195.604 1.47186 196.116 0.991859C196.628 0.51186 197.236 0.255859 198.004 0.255859C198.74 0.255859 199.348 0.51186 199.86 0.991859ZM195.732 7.10386H200.244V23.5519H195.732V7.10386Z" fill="#1D272D"/>
<path d="M191.001 8.70337C192.249 9.91937 192.889 11.8714 192.889 14.6234V23.5514H188.377V14.8154C188.377 13.4714 188.089 12.4154 187.545 11.7114C186.969 11.0074 186.137 10.6234 185.049 10.6234C183.897 10.6234 182.969 11.0394 182.329 11.8074C181.689 12.6074 181.369 13.6954 181.369 15.1034V23.5514H176.857V1.15137H181.369V9.11937C182.585 7.64737 184.185 6.91137 186.233 6.91137C188.153 6.91137 189.753 7.51937 191.001 8.70337Z" fill="#1D272D"/>
<path d="M143.858 1.15212L148.818 1.12012L152.946 17.5041L157.33 1.15212H161.65L165.906 17.5041L170.13 1.15212H174.994L168.786 23.5521H163.25L159.378 8.67212L155.602 23.5521H150.066L143.858 1.15212Z" fill="#1D272D"/>
<path d="M123.599 18.0797C123.663 18.8157 124.015 19.3917 124.655 19.8397C125.295 20.2877 126.095 20.5117 127.119 20.5117C128.079 20.5117 128.815 20.3837 129.391 20.0637C129.935 19.7437 130.223 19.2957 130.223 18.7197C130.223 18.3037 130.095 17.9837 129.839 17.7597C129.583 17.5677 129.199 17.4077 128.751 17.3117C128.271 17.2157 127.503 17.0877 126.447 16.9597C124.975 16.7677 123.791 16.5437 122.831 16.2237C121.871 15.9357 121.103 15.4557 120.527 14.8157C119.951 14.1757 119.663 13.3437 119.663 12.2557C119.663 11.1997 119.951 10.2717 120.527 9.43966C121.103 8.60766 121.935 7.96766 123.023 7.51966C124.079 7.07166 125.295 6.84766 126.703 6.84766C128.943 6.87966 130.735 7.35966 132.111 8.28766C133.487 9.24766 134.223 10.5277 134.351 12.1917H130.063C129.999 11.5837 129.647 11.0717 129.071 10.6877C128.495 10.3037 127.727 10.0797 126.831 10.0797C125.967 10.0797 125.263 10.2397 124.751 10.5597C124.239 10.8797 123.983 11.3277 123.983 11.8397C123.983 12.2237 124.111 12.5117 124.399 12.7037C124.655 12.8957 125.039 13.0557 125.487 13.1197C125.935 13.2157 126.671 13.3117 127.727 13.4077C129.935 13.6637 131.631 14.1437 132.815 14.8477C133.999 15.5517 134.607 16.7357 134.607 18.3997C134.607 19.4877 134.287 20.4157 133.647 21.2157C133.007 22.0477 132.143 22.6557 131.023 23.1037C129.903 23.5517 128.623 23.7437 127.151 23.7437C124.847 23.7437 122.991 23.2637 121.583 22.2397C120.143 21.2157 119.375 19.8397 119.311 18.0797H123.599Z" fill="#1D272D"/>
<path d="M106.631 18.0797C106.695 18.8157 107.047 19.3917 107.687 19.8397C108.327 20.2877 109.127 20.5117 110.151 20.5117C111.111 20.5117 111.847 20.3837 112.423 20.0637C112.967 19.7437 113.255 19.2957 113.255 18.7197C113.255 18.3037 113.127 17.9837 112.871 17.7597C112.615 17.5677 112.231 17.4077 111.783 17.3117C111.303 17.2157 110.535 17.0877 109.479 16.9597C108.007 16.7677 106.823 16.5437 105.863 16.2237C104.903 15.9357 104.135 15.4557 103.559 14.8157C102.983 14.1757 102.695 13.3437 102.695 12.2557C102.695 11.1997 102.983 10.2717 103.559 9.43966C104.135 8.60766 104.967 7.96766 106.055 7.51966C107.111 7.07166 108.327 6.84766 109.735 6.84766C111.975 6.87966 113.767 7.35966 115.143 8.28766C116.519 9.24766 117.255 10.5277 117.383 12.1917H113.095C113.031 11.5837 112.679 11.0717 112.103 10.6877C111.527 10.3037 110.759 10.0797 109.863 10.0797C108.999 10.0797 108.295 10.2397 107.783 10.5597C107.271 10.8797 107.015 11.3277 107.015 11.8397C107.015 12.2237 107.143 12.5117 107.431 12.7037C107.687 12.8957 108.071 13.0557 108.519 13.1197C108.967 13.2157 109.703 13.3117 110.759 13.4077C112.967 13.6637 114.663 14.1437 115.847 14.8477C117.031 15.5517 117.639 16.7357 117.639 18.3997C117.639 19.4877 117.319 20.4157 116.679 21.2157C116.039 22.0477 115.175 22.6557 114.055 23.1037C112.935 23.5517 111.655 23.7437 110.183 23.7437C107.879 23.7437 106.023 23.2637 104.615 22.2397C103.175 21.2157 102.407 19.8397 102.343 18.0797H106.631Z" fill="#1D272D"/>
<path d="M84.866 10.9121C85.57 9.63211 86.53 8.67211 87.778 7.96811C89.026 7.26411 90.466 6.91211 92.13 6.91211C93.794 6.91211 95.234 7.26411 96.514 7.90411C97.794 8.54411 98.786 9.47211 99.49 10.6561C100.194 11.8401 100.578 13.2161 100.61 14.8161C100.61 15.3921 100.546 15.9041 100.482 16.3521H88.546V16.4801C88.642 17.6961 89.026 18.6241 89.698 19.2961C90.338 20.0001 91.266 20.3201 92.418 20.3201C93.314 20.3201 94.082 20.1281 94.69 19.7441C95.298 19.3601 95.714 18.7521 95.906 17.9841H100.354C100.162 19.0721 99.746 20.0641 99.106 20.9281C98.434 21.8241 97.57 22.4961 96.482 23.0081C95.394 23.5201 94.146 23.7441 92.738 23.7441C90.882 23.7441 89.314 23.4241 87.97 22.7201C86.626 22.0481 85.602 21.0881 84.898 19.8081C84.194 18.5281 83.842 17.0561 83.842 15.3601C83.842 13.6641 84.162 12.1921 84.866 10.9121ZM96.098 13.4081C95.938 12.4161 95.522 11.6481 94.85 11.1041C94.178 10.5601 93.346 10.2721 92.322 10.2721C91.33 10.2721 90.498 10.5601 89.826 11.1361C89.154 11.7121 88.77 12.4481 88.642 13.4081H96.098Z" fill="#1D272D"/>
<path d="M79.783 8.70411C80.999 9.92011 81.639 11.8721 81.639 14.6241V23.5521H77.127V14.8801C77.127 12.0641 76.007 10.6241 73.799 10.6241C72.615 10.6241 71.719 11.0401 71.079 11.8081C70.439 12.6081 70.119 13.7281 70.119 15.1361V23.5521H65.607V7.10411H69.543L69.959 9.15211C70.535 8.44811 71.207 7.90411 72.039 7.52011C72.839 7.13611 73.831 6.91211 75.047 6.91211C76.967 6.91211 78.535 7.52011 79.783 8.70411Z" fill="#1D272D"/>
<path d="M57.9507 1.15137H62.4627V23.5514H57.9507V1.15137Z" fill="#1D272D"/>
<path d="M50.2945 1.15137H54.8065V23.5514H50.2945V1.15137Z" fill="#1D272D"/>
<path d="M32.0847 10.9121C32.7887 9.63211 33.7487 8.67211 34.9967 7.96811C36.2447 7.26411 37.6847 6.91211 39.3487 6.91211C41.0127 6.91211 42.4527 7.26411 43.7327 7.90411C45.0127 8.54411 46.0047 9.47211 46.7087 10.6561C47.4127 11.8401 47.7967 13.2161 47.8287 14.8161C47.8287 15.3921 47.7647 15.9041 47.7007 16.3521H35.7647V16.4801C35.8607 17.6961 36.2447 18.6241 36.9167 19.2961C37.5567 20.0001 38.4847 20.3201 39.6367 20.3201C40.5327 20.3201 41.3007 20.1281 41.9087 19.7441C42.5167 19.3601 42.9327 18.7521 43.1247 17.9841H47.5727C47.3807 19.0721 46.9647 20.0641 46.3247 20.9281C45.6527 21.8241 44.7887 22.4961 43.7007 23.0081C42.6127 23.5201 41.3647 23.7441 39.9567 23.7441C38.1007 23.7441 36.5327 23.4241 35.1887 22.7201C33.8447 22.0481 32.8207 21.0881 32.1167 19.8081C31.4127 18.5281 31.0607 17.0561 31.0607 15.3601C31.0607 13.6641 31.3807 12.1921 32.0847 10.9121ZM43.3167 13.4081C43.1567 12.4161 42.7407 11.6481 42.0687 11.1041C41.3967 10.5601 40.5647 10.2721 39.5407 10.2721C38.5487 10.2721 37.7167 10.5601 37.0447 11.1361C36.3727 11.7121 35.9887 12.4481 35.8607 13.4081H43.3167Z" fill="#1D272D"/>
<path d="M0.233215 1.15212L5.19322 1.12012L9.32122 17.5041L13.7052 1.15212H18.0252L22.2812 17.5041L26.5052 1.15212H31.3692L25.1612 23.5521H19.6252L15.7532 8.67212L11.9772 23.5521H6.44122L0.233215 1.15212Z" fill="#1D272D"/>
</g>
<defs>
<clipPath id="clip0_129_441">
<rect width="233.073" height="23.4883" fill="white" transform="translate(0.233215 0.255859)"/>
</clipPath>
</defs>
</svg>
